# Blender v3.2.1 OBJ File: 'smallroad.blend'
# www.blender.org
mtllib smallroad.mtl
o Cube
v 3.988871 0.120000 -3.131388
v 3.988871 -0.120000 -3.131388
v 3.988871 0.120000 3.131388
v 3.988871 -0.120000 3.131388
v -3.988871 0.120000 -3.131388
v -3.988871 -0.120000 -3.131388
v -3.988871 0.120000 3.131388
v -3.988871 -0.120000 3.131388
v -3.988871 -0.120000 -2.699489
v -3.988871 -0.120000 2.699489
v 3.988871 0.120000 -2.699489
v 3.988871 0.120000 2.699489
v -3.988871 0.120000 2.699489
v -3.988871 0.120000 -2.699489
v 3.988871 -0.120000 2.699489
v 3.988871 -0.120000 -2.699489
v 3.988871 0.201393 3.131388
v -3.988871 0.201393 3.131388
v 3.988871 0.201393 2.699489
v -3.988871 0.201393 -2.699489
v -3.988871 0.201393 -3.131388
v 3.988871 0.201393 -3.131388
v 3.988871 0.201393 -2.699489
v -3.988871 0.201393 2.699489
v 11.966614 0.120000 -3.131388
v 11.966614 -0.120000 -3.131388
v 11.966614 0.120000 3.131388
v 11.966614 -0.120000 3.131388
v 3.988871 0.120000 -3.131388
v 3.988871 -0.120000 -3.131388
v 3.988871 0.120000 3.131388
v 3.988871 -0.120000 3.131388
v 3.988871 -0.120000 -2.699489
v 3.988871 -0.120000 2.699489
v 11.966614 0.120000 -2.699489
v 11.966614 0.120000 2.699489
v 3.988871 0.120000 2.699489
v 3.988871 0.120000 -2.699489
v 11.966614 -0.120000 2.699489
v 11.966614 -0.120000 -2.699489
v 11.966614 0.201393 3.131388
v 3.988871 0.201393 3.131388
v 11.966614 0.201393 2.699489
v 3.988871 0.201393 -2.699489
v 3.988871 0.201393 -3.131388
v 11.966614 0.201393 -3.131388
v 11.966614 0.201393 -2.699489
v 3.988871 0.201393 2.699489
v 19.944355 0.120000 -3.131388
v 19.944355 -0.120000 -3.131388
v 19.944355 0.120000 3.131388
v 19.944355 -0.120000 3.131388
v 11.966614 0.120000 -3.131388
v 11.966614 -0.120000 -3.131388
v 11.966614 0.120000 3.131388
v 11.966614 -0.120000 3.131388
v 11.966614 -0.120000 -2.699489
v 11.966614 -0.120000 2.699489
v 19.944355 0.120000 -2.699489
v 19.944355 0.120000 2.699489
v 11.966614 0.120000 2.699489
v 11.966614 0.120000 -2.699489
v 19.944355 -0.120000 2.699489
v 19.944355 -0.120000 -2.699489
v 19.944355 0.201393 3.131388
v 11.966614 0.201393 3.131388
v 19.944355 0.201393 2.699489
v 11.966614 0.201393 -2.699489
v 11.966614 0.201393 -3.131388
v 19.944355 0.201393 -3.131388
v 19.944355 0.201393 -2.699489
v 11.966614 0.201393 2.699489
v 27.922098 0.120000 -3.131388
v 27.922098 -0.120000 -3.131388
v 27.922098 0.120000 3.131388
v 27.922098 -0.120000 3.131388
v 19.944355 0.120000 -3.131388
v 19.944355 -0.120000 -3.131388
v 19.944355 0.120000 3.131388
v 19.944355 -0.120000 3.131388
v 19.944355 -0.120000 -2.699489
v 19.944355 -0.120000 2.699489
v 27.922098 0.120000 -2.699489
v 27.922098 0.120000 2.699489
v 19.944355 0.120000 2.699489
v 19.944355 0.120000 -2.699489
v 27.922098 -0.120000 2.699489
v 27.922098 -0.120000 -2.699489
v 27.922098 0.201393 3.131388
v 19.944355 0.201393 3.131388
v 27.922098 0.201393 2.699489
v 19.944355 0.201393 -2.699489
v 19.944355 0.201393 -3.131388
v 27.922098 0.201393 -3.131388
v 27.922098 0.201393 -2.699489
v 19.944355 0.201393 2.699489
v 35.899841 0.120000 -3.131388
v 35.899841 -0.120000 -3.131388
v 35.899841 0.120000 3.131388
v 35.899841 -0.120000 3.131388
v 27.922098 0.120000 -3.131388
v 27.922098 -0.120000 -3.131388
v 27.922098 0.120000 3.131388
v 27.922098 -0.120000 3.131388
v 27.922098 -0.120000 -2.699489
v 27.922098 -0.120000 2.699489
v 35.899841 0.120000 -2.699489
v 35.899841 0.120000 2.699489
v 27.922098 0.120000 2.699489
v 27.922098 0.120000 -2.699489
v 35.899841 -0.120000 2.699489
v 35.899841 -0.120000 -2.699489
v 35.899841 0.201393 3.131388
v 27.922098 0.201393 3.131388
v 35.899841 0.201393 2.699489
v 27.922098 0.201393 -2.699489
v 27.922098 0.201393 -3.131388
v 35.899841 0.201393 -3.131388
v 35.899841 0.201393 -2.699489
v 27.922098 0.201393 2.699489
v 43.877583 0.120000 -3.131388
v 43.877583 -0.120000 -3.131388
v 43.877583 0.120000 3.131388
v 43.877583 -0.120000 3.131388
v 35.899841 0.120000 -3.131388
v 35.899841 -0.120000 -3.131388
v 35.899841 0.120000 3.131388
v 35.899841 -0.120000 3.131388
v 35.899841 -0.120000 -2.699489
v 35.899841 -0.120000 2.699489
v 43.877583 0.120000 -2.699489
v 43.877583 0.120000 2.699489
v 35.899841 0.120000 2.699489
v 35.899841 0.120000 -2.699489
v 43.877583 -0.120000 2.699489
v 43.877583 -0.120000 -2.699489
v 43.877583 0.201393 3.131388
v 35.899841 0.201393 3.131388
v 43.877583 0.201393 2.699489
v 35.899841 0.201393 -2.699489
v 35.899841 0.201393 -3.131388
v 43.877583 0.201393 -3.131388
v 43.877583 0.201393 -2.699489
v 35.899841 0.201393 2.699489
v 51.855324 0.120000 -3.131388
v 51.855324 -0.120000 -3.131388
v 51.855324 0.120000 3.131388
v 51.855324 -0.120000 3.131388
v 43.877583 0.120000 -3.131388
v 43.877583 -0.120000 -3.131388
v 43.877583 0.120000 3.131388
v 43.877583 -0.120000 3.131388
v 43.877583 -0.120000 -2.699489
v 43.877583 -0.120000 2.699489
v 51.855324 0.120000 -2.699489
v 51.855324 0.120000 2.699489
v 43.877583 0.120000 2.699489
v 43.877583 0.120000 -2.699489
v 51.855324 -0.120000 2.699489
v 51.855324 -0.120000 -2.699489
v 51.855324 0.201393 3.131388
v 43.877583 0.201393 3.131388
v 51.855324 0.201393 2.699489
v 43.877583 0.201393 -2.699489
v 43.877583 0.201393 -3.131388
v 51.855324 0.201393 -3.131388
v 51.855324 0.201393 -2.699489
v 43.877583 0.201393 2.699489
v 59.833065 0.120000 -3.131388
v 59.833065 -0.120000 -3.131388
v 59.833065 0.120000 3.131388
v 59.833065 -0.120000 3.131388
v 51.855324 0.120000 -3.131388
v 51.855324 -0.120000 -3.131388
v 51.855324 0.120000 3.131388
v 51.855324 -0.120000 3.131388
v 51.855324 -0.120000 -2.699489
v 51.855324 -0.120000 2.699489
v 59.833065 0.120000 -2.699489
v 59.833065 0.120000 2.699489
v 51.855324 0.120000 2.699489
v 51.855324 0.120000 -2.699489
v 59.833065 -0.120000 2.699489
v 59.833065 -0.120000 -2.699489
v 59.833065 0.201393 3.131388
v 51.855324 0.201393 3.131388
v 59.833065 0.201393 2.699489
v 51.855324 0.201393 -2.699489
v 51.855324 0.201393 -3.131388
v 59.833065 0.201393 -3.131388
v 59.833065 0.201393 -2.699489
v 51.855324 0.201393 2.699489
vt 0.342016 0.746748
vt 0.657984 0.746748
vt 0.657984 1.000000
vt 0.342016 1.000000
vt 0.586646 0.534514
vt 0.586646 0.902709
vt 0.430854 0.902709
vt 0.430854 0.534514
vt 0.575902 0.534514
vt 0.575902 0.902709
vt 0.586646 0.902709
vt 0.586646 0.534514
vt 0.342016 0.178124
vt 0.657984 0.178124
vt 0.657984 0.126626
vt 0.342016 0.126626
vt 0.441598 0.534514
vt 0.441598 0.902709
vt 0.430854 0.902709
vt 0.430854 0.534514
vt 0.430854 0.534514
vt 0.430854 0.902709
vt 0.586646 0.902709
vt 0.586646 0.534514
vt 0.575902 0.902709
vt 0.575902 0.534514
vt 0.342016 0.873374
vt 0.657984 0.873374
vt 0.657984 0.821876
vt 0.342016 0.821876
vt 0.441598 0.902709
vt 0.441598 0.534514
vt 0.342016 0.746748
vt 0.657984 0.746748
vt 0.657984 1.000000
vt 0.342016 1.000000
vt 0.711563 0.914853
vt 0.288437 0.914853
vt 0.288437 0.221040
vt 0.711563 0.221040
vt 0.711563 0.221040
vt 0.288437 0.221040
vt 0.288437 0.163174
vt 0.711563 0.163174
vt 0.711563 0.972719
vt 0.288437 0.972719
vt 0.288437 0.914853
vt 0.711563 0.914853
vt 0.657984 0.746748
vt 0.636194 0.746748
vt 0.636194 1.000000
vt 0.657984 1.000000
vt 0.342016 0.746748
vt 0.363806 0.746748
vt 0.363806 1.000000
vt 0.342016 1.000000
vt 0.657984 0.746748
vt 0.342016 0.746748
vt 0.342016 1.000000
vt 0.657984 1.000000
vt 0.363806 0.746748
vt 0.363806 1.000000
vt 0.636194 0.746748
vt 0.657984 0.746748
vt 0.657984 1.000000
vt 0.636194 1.000000
vt 0.342016 0.746748
vt 0.342016 1.000000
vt 0.342016 0.746748
vt 0.657984 0.746748
vt 0.657984 1.000000
vt 0.342016 1.000000
vt 0.586646 0.534514
vt 0.586646 0.902709
vt 0.430854 0.902709
vt 0.430854 0.534514
vt 0.575902 0.534514
vt 0.575902 0.902709
vt 0.586646 0.902709
vt 0.586646 0.534514
vt 0.342016 0.178124
vt 0.657984 0.178124
vt 0.657984 0.126626
vt 0.342016 0.126626
vt 0.441598 0.534514
vt 0.441598 0.902709
vt 0.430854 0.902709
vt 0.430854 0.534514
vt 0.430854 0.534514
vt 0.430854 0.902709
vt 0.586646 0.902709
vt 0.586646 0.534514
vt 0.575902 0.902709
vt 0.575902 0.534514
vt 0.342016 0.873374
vt 0.657984 0.873374
vt 0.657984 0.821876
vt 0.342016 0.821876
vt 0.441598 0.902709
vt 0.441598 0.534514
vt 0.342016 0.746748
vt 0.657984 0.746748
vt 0.657984 1.000000
vt 0.342016 1.000000
vt 0.711563 0.914853
vt 0.288437 0.914853
vt 0.288437 0.221040
vt 0.711563 0.221040
vt 0.711563 0.221040
vt 0.288437 0.221040
vt 0.288437 0.163174
vt 0.711563 0.163174
vt 0.711563 0.972719
vt 0.288437 0.972719
vt 0.288437 0.914853
vt 0.711563 0.914853
vt 0.657984 0.746748
vt 0.636194 0.746748
vt 0.636194 1.000000
vt 0.657984 1.000000
vt 0.342016 0.746748
vt 0.363806 0.746748
vt 0.363806 1.000000
vt 0.342016 1.000000
vt 0.657984 0.746748
vt 0.342016 0.746748
vt 0.342016 1.000000
vt 0.657984 1.000000
vt 0.363806 0.746748
vt 0.363806 1.000000
vt 0.636194 0.746748
vt 0.657984 0.746748
vt 0.657984 1.000000
vt 0.636194 1.000000
vt 0.342016 0.746748
vt 0.342016 1.000000
vt 0.342016 0.746748
vt 0.657984 0.746748
vt 0.657984 1.000000
vt 0.342016 1.000000
vt 0.586646 0.534514
vt 0.586646 0.902709
vt 0.430854 0.902709
vt 0.430854 0.534514
vt 0.575902 0.534514
vt 0.575902 0.902709
vt 0.586646 0.902709
vt 0.586646 0.534514
vt 0.342016 0.178124
vt 0.657984 0.178124
vt 0.657984 0.126626
vt 0.342016 0.126626
vt 0.441598 0.534514
vt 0.441598 0.902709
vt 0.430854 0.902709
vt 0.430854 0.534514
vt 0.430854 0.534514
vt 0.430854 0.902709
vt 0.586646 0.902709
vt 0.586646 0.534514
vt 0.575902 0.902709
vt 0.575902 0.534514
vt 0.342016 0.873374
vt 0.657984 0.873374
vt 0.657984 0.821876
vt 0.342016 0.821876
vt 0.441598 0.902709
vt 0.441598 0.534514
vt 0.342016 0.746748
vt 0.657984 0.746748
vt 0.657984 1.000000
vt 0.342016 1.000000
vt 0.711563 0.914853
vt 0.288437 0.914853
vt 0.288437 0.221040
vt 0.711563 0.221040
vt 0.711563 0.221040
vt 0.288437 0.221040
vt 0.288437 0.163174
vt 0.711563 0.163174
vt 0.711563 0.972719
vt 0.288437 0.972719
vt 0.288437 0.914853
vt 0.711563 0.914853
vt 0.657984 0.746748
vt 0.636194 0.746748
vt 0.636194 1.000000
vt 0.657984 1.000000
vt 0.342016 0.746748
vt 0.363806 0.746748
vt 0.363806 1.000000
vt 0.342016 1.000000
vt 0.657984 0.746748
vt 0.342016 0.746748
vt 0.342016 1.000000
vt 0.657984 1.000000
vt 0.363806 0.746748
vt 0.363806 1.000000
vt 0.636194 0.746748
vt 0.657984 0.746748
vt 0.657984 1.000000
vt 0.636194 1.000000
vt 0.342016 0.746748
vt 0.342016 1.000000
vt 0.342016 0.746748
vt 0.657984 0.746748
vt 0.657984 1.000000
vt 0.342016 1.000000
vt 0.586646 0.534514
vt 0.586646 0.902709
vt 0.430854 0.902709
vt 0.430854 0.534514
vt 0.575902 0.534514
vt 0.575902 0.902709
vt 0.586646 0.902709
vt 0.586646 0.534514
vt 0.342016 0.178124
vt 0.657984 0.178124
vt 0.657984 0.126626
vt 0.342016 0.126626
vt 0.441598 0.534514
vt 0.441598 0.902709
vt 0.430854 0.902709
vt 0.430854 0.534514
vt 0.430854 0.534514
vt 0.430854 0.902709
vt 0.586646 0.902709
vt 0.586646 0.534514
vt 0.575902 0.902709
vt 0.575902 0.534514
vt 0.342016 0.873374
vt 0.657984 0.873374
vt 0.657984 0.821876
vt 0.342016 0.821876
vt 0.441598 0.902709
vt 0.441598 0.534514
vt 0.342016 0.746748
vt 0.657984 0.746748
vt 0.657984 1.000000
vt 0.342016 1.000000
vt 0.711563 0.914853
vt 0.288437 0.914853
vt 0.288437 0.221040
vt 0.711563 0.221040
vt 0.711563 0.221040
vt 0.288437 0.221040
vt 0.288437 0.163174
vt 0.711563 0.163174
vt 0.711563 0.972719
vt 0.288437 0.972719
vt 0.288437 0.914853
vt 0.711563 0.914853
vt 0.657984 0.746748
vt 0.636194 0.746748
vt 0.636194 1.000000
vt 0.657984 1.000000
vt 0.342016 0.746748
vt 0.363806 0.746748
vt 0.363806 1.000000
vt 0.342016 1.000000
vt 0.657984 0.746748
vt 0.342016 0.746748
vt 0.342016 1.000000
vt 0.657984 1.000000
vt 0.363806 0.746748
vt 0.363806 1.000000
vt 0.636194 0.746748
vt 0.657984 0.746748
vt 0.657984 1.000000
vt 0.636194 1.000000
vt 0.342016 0.746748
vt 0.342016 1.000000
vt 0.342016 0.746748
vt 0.657984 0.746748
vt 0.657984 1.000000
vt 0.342016 1.000000
vt 0.586646 0.534514
vt 0.586646 0.902709
vt 0.430854 0.902709
vt 0.430854 0.534514
vt 0.575902 0.534514
vt 0.575902 0.902709
vt 0.586646 0.902709
vt 0.586646 0.534514
vt 0.342016 0.178124
vt 0.657984 0.178124
vt 0.657984 0.126626
vt 0.342016 0.126626
vt 0.441598 0.534514
vt 0.441598 0.902709
vt 0.430854 0.902709
vt 0.430854 0.534514
vt 0.430854 0.534514
vt 0.430854 0.902709
vt 0.586646 0.902709
vt 0.586646 0.534514
vt 0.575902 0.902709
vt 0.575902 0.534514
vt 0.342016 0.873374
vt 0.657984 0.873374
vt 0.657984 0.821876
vt 0.342016 0.821876
vt 0.441598 0.902709
vt 0.441598 0.534514
vt 0.342016 0.746748
vt 0.657984 0.746748
vt 0.657984 1.000000
vt 0.342016 1.000000
vt 0.711563 0.914853
vt 0.288437 0.914853
vt 0.288437 0.221040
vt 0.711563 0.221040
vt 0.711563 0.221040
vt 0.288437 0.221040
vt 0.288437 0.163174
vt 0.711563 0.163174
vt 0.711563 0.972719
vt 0.288437 0.972719
vt 0.288437 0.914853
vt 0.711563 0.914853
vt 0.657984 0.746748
vt 0.636194 0.746748
vt 0.636194 1.000000
vt 0.657984 1.000000
vt 0.342016 0.746748
vt 0.363806 0.746748
vt 0.363806 1.000000
vt 0.342016 1.000000
vt 0.657984 0.746748
vt 0.342016 0.746748
vt 0.342016 1.000000
vt 0.657984 1.000000
vt 0.363806 0.746748
vt 0.363806 1.000000
vt 0.636194 0.746748
vt 0.657984 0.746748
vt 0.657984 1.000000
vt 0.636194 1.000000
vt 0.342016 0.746748
vt 0.342016 1.000000
vt 0.342016 0.746748
vt 0.657984 0.746748
vt 0.657984 1.000000
vt 0.342016 1.000000
vt 0.586646 0.534514
vt 0.586646 0.902709
vt 0.430854 0.902709
vt 0.430854 0.534514
vt 0.575902 0.534514
vt 0.575902 0.902709
vt 0.586646 0.902709
vt 0.586646 0.534514
vt 0.342016 0.178124
vt 0.657984 0.178124
vt 0.657984 0.126626
vt 0.342016 0.126626
vt 0.441598 0.534514
vt 0.441598 0.902709
vt 0.430854 0.902709
vt 0.430854 0.534514
vt 0.430854 0.534514
vt 0.430854 0.902709
vt 0.586646 0.902709
vt 0.586646 0.534514
vt 0.575902 0.902709
vt 0.575902 0.534514
vt 0.342016 0.873374
vt 0.657984 0.873374
vt 0.657984 0.821876
vt 0.342016 0.821876
vt 0.441598 0.902709
vt 0.441598 0.534514
vt 0.342016 0.746748
vt 0.657984 0.746748
vt 0.657984 1.000000
vt 0.342016 1.000000
vt 0.711563 0.914853
vt 0.288437 0.914853
vt 0.288437 0.221040
vt 0.711563 0.221040
vt 0.711563 0.221040
vt 0.288437 0.221040
vt 0.288437 0.163174
vt 0.711563 0.163174
vt 0.711563 0.972719
vt 0.288437 0.972719
vt 0.288437 0.914853
vt 0.711563 0.914853
vt 0.657984 0.746748
vt 0.636194 0.746748
vt 0.636194 1.000000
vt 0.657984 1.000000
vt 0.342016 0.746748
vt 0.363806 0.746748
vt 0.363806 1.000000
vt 0.342016 1.000000
vt 0.657984 0.746748
vt 0.342016 0.746748
vt 0.342016 1.000000
vt 0.657984 1.000000
vt 0.363806 0.746748
vt 0.363806 1.000000
vt 0.636194 0.746748
vt 0.657984 0.746748
vt 0.657984 1.000000
vt 0.636194 1.000000
vt 0.342016 0.746748
vt 0.342016 1.000000
vt 0.342016 0.746748
vt 0.657984 0.746748
vt 0.657984 1.000000
vt 0.342016 1.000000
vt 0.586646 0.534514
vt 0.586646 0.902709
vt 0.430854 0.902709
vt 0.430854 0.534514
vt 0.575902 0.534514
vt 0.575902 0.902709
vt 0.586646 0.902709
vt 0.586646 0.534514
vt 0.342016 0.178124
vt 0.657984 0.178124
vt 0.657984 0.126626
vt 0.342016 0.126626
vt 0.441598 0.534514
vt 0.441598 0.902709
vt 0.430854 0.902709
vt 0.430854 0.534514
vt 0.430854 0.534514
vt 0.430854 0.902709
vt 0.586646 0.902709
vt 0.586646 0.534514
vt 0.575902 0.902709
vt 0.575902 0.534514
vt 0.342016 0.873374
vt 0.657984 0.873374
vt 0.657984 0.821876
vt 0.342016 0.821876
vt 0.441598 0.902709
vt 0.441598 0.534514
vt 0.342016 0.746748
vt 0.657984 0.746748
vt 0.657984 1.000000
vt 0.342016 1.000000
vt 0.711563 0.914853
vt 0.288437 0.914853
vt 0.288437 0.221040
vt 0.711563 0.221040
vt 0.711563 0.221040
vt 0.288437 0.221040
vt 0.288437 0.163174
vt 0.711563 0.163174
vt 0.711563 0.972719
vt 0.288437 0.972719
vt 0.288437 0.914853
vt 0.711563 0.914853
vt 0.657984 0.746748
vt 0.636194 0.746748
vt 0.636194 1.000000
vt 0.657984 1.000000
vt 0.342016 0.746748
vt 0.363806 0.746748
vt 0.363806 1.000000
vt 0.342016 1.000000
vt 0.657984 0.746748
vt 0.342016 0.746748
vt 0.342016 1.000000
vt 0.657984 1.000000
vt 0.363806 0.746748
vt 0.363806 1.000000
vt 0.636194 0.746748
vt 0.657984 0.746748
vt 0.657984 1.000000
vt 0.636194 1.000000
vt 0.342016 0.746748
vt 0.342016 1.000000
vt 0.342016 0.746748
vt 0.657984 0.746748
vt 0.657984 1.000000
vt 0.342016 1.000000
vt 0.586646 0.534514
vt 0.586646 0.902709
vt 0.430854 0.902709
vt 0.430854 0.534514
vt 0.575902 0.534514
vt 0.575902 0.902709
vt 0.586646 0.902709
vt 0.586646 0.534514
vt 0.342016 0.178124
vt 0.657984 0.178124
vt 0.657984 0.126626
vt 0.342016 0.126626
vt 0.441598 0.534514
vt 0.441598 0.902709
vt 0.430854 0.902709
vt 0.430854 0.534514
vt 0.430854 0.534514
vt 0.430854 0.902709
vt 0.586646 0.902709
vt 0.586646 0.534514
vt 0.575902 0.902709
vt 0.575902 0.534514
vt 0.342016 0.873374
vt 0.657984 0.873374
vt 0.657984 0.821876
vt 0.342016 0.821876
vt 0.441598 0.902709
vt 0.441598 0.534514
vt 0.342016 0.746748
vt 0.657984 0.746748
vt 0.657984 1.000000
vt 0.342016 1.000000
vt 0.711563 0.914853
vt 0.288437 0.914853
vt 0.288437 0.221040
vt 0.711563 0.221040
vt 0.711563 0.221040
vt 0.288437 0.221040
vt 0.288437 0.163174
vt 0.711563 0.163174
vt 0.711563 0.972719
vt 0.288437 0.972719
vt 0.288437 0.914853
vt 0.711563 0.914853
vt 0.657984 0.746748
vt 0.636194 0.746748
vt 0.636194 1.000000
vt 0.657984 1.000000
vt 0.342016 0.746748
vt 0.363806 0.746748
vt 0.363806 1.000000
vt 0.342016 1.000000
vt 0.657984 0.746748
vt 0.342016 0.746748
vt 0.342016 1.000000
vt 0.657984 1.000000
vt 0.363806 0.746748
vt 0.363806 1.000000
vt 0.636194 0.746748
vt 0.657984 0.746748
vt 0.657984 1.000000
vt 0.636194 1.000000
vt 0.342016 0.746748
vt 0.342016 1.000000
vn 0.0000 0.0000 1.0000
vn -1.0000 0.0000 0.0000
vn 0.0000 -1.0000 0.0000
vn 1.0000 0.0000 0.0000
vn 0.0000 0.0000 -1.0000
vn 0.0000 1.0000 0.0000
usemtl Material
s off
f 14/1/1 11/2/1 23/3/1 20/4/1
f 4/5/1 3/6/1 7/7/1 8/8/1
f 9/9/2 14/10/2 5/11/2 6/12/2
f 10/13/3 15/14/3 4/15/3 8/16/3
f 15/17/4 12/18/4 3/19/4 4/20/4
f 6/21/5 5/22/5 1/23/5 2/24/5
f 2/24/4 1/23/4 11/25/4 16/26/4
f 16/26/4 11/25/4 12/18/4 15/17/4
f 6/27/3 2/28/3 16/29/3 9/30/3
f 9/30/3 16/29/3 15/14/3 10/13/3
f 8/8/2 7/7/2 13/31/2 10/32/2
f 10/32/2 13/31/2 14/10/2 9/9/2
f 7/33/1 3/34/1 17/35/1 18/36/1
f 11/37/6 14/38/6 13/39/6 12/40/6
f 19/41/6 24/42/6 18/43/6 17/44/6
f 22/45/6 21/46/6 20/47/6 23/48/6
f 5/49/2 14/50/2 20/51/2 21/52/2
f 3/53/4 12/54/4 19/55/4 17/56/4
f 12/57/5 13/58/5 24/59/5 19/60/5
f 13/61/2 7/33/2 18/36/2 24/62/2
f 11/63/4 1/64/4 22/65/4 23/66/4
f 1/64/5 5/67/5 21/68/5 22/65/5
f 38/69/1 35/70/1 47/71/1 44/72/1
f 28/73/1 27/74/1 31/75/1 32/76/1
f 33/77/2 38/78/2 29/79/2 30/80/2
f 34/81/3 39/82/3 28/83/3 32/84/3
f 39/85/4 36/86/4 27/87/4 28/88/4
f 30/89/5 29/90/5 25/91/5 26/92/5
f 26/92/4 25/91/4 35/93/4 40/94/4
f 40/94/4 35/93/4 36/86/4 39/85/4
f 30/95/3 26/96/3 40/97/3 33/98/3
f 33/98/3 40/97/3 39/82/3 34/81/3
f 32/76/2 31/75/2 37/99/2 34/100/2
f 34/100/2 37/99/2 38/78/2 33/77/2
f 31/101/1 27/102/1 41/103/1 42/104/1
f 35/105/6 38/106/6 37/107/6 36/108/6
f 43/109/6 48/110/6 42/111/6 41/112/6
f 46/113/6 45/114/6 44/115/6 47/116/6
f 29/117/2 38/118/2 44/119/2 45/120/2
f 27/121/4 36/122/4 43/123/4 41/124/4
f 36/125/5 37/126/5 48/127/5 43/128/5
f 37/129/2 31/101/2 42/104/2 48/130/2
f 35/131/4 25/132/4 46/133/4 47/134/4
f 25/132/5 29/135/5 45/136/5 46/133/5
f 62/137/1 59/138/1 71/139/1 68/140/1
f 52/141/1 51/142/1 55/143/1 56/144/1
f 57/145/2 62/146/2 53/147/2 54/148/2
f 58/149/3 63/150/3 52/151/3 56/152/3
f 63/153/4 60/154/4 51/155/4 52/156/4
f 54/157/5 53/158/5 49/159/5 50/160/5
f 50/160/4 49/159/4 59/161/4 64/162/4
f 64/162/4 59/161/4 60/154/4 63/153/4
f 54/163/3 50/164/3 64/165/3 57/166/3
f 57/166/3 64/165/3 63/150/3 58/149/3
f 56/144/2 55/143/2 61/167/2 58/168/2
f 58/168/2 61/167/2 62/146/2 57/145/2
f 55/169/1 51/170/1 65/171/1 66/172/1
f 59/173/6 62/174/6 61/175/6 60/176/6
f 67/177/6 72/178/6 66/179/6 65/180/6
f 70/181/6 69/182/6 68/183/6 71/184/6
f 53/185/2 62/186/2 68/187/2 69/188/2
f 51/189/4 60/190/4 67/191/4 65/192/4
f 60/193/5 61/194/5 72/195/5 67/196/5
f 61/197/2 55/169/2 66/172/2 72/198/2
f 59/199/4 49/200/4 70/201/4 71/202/4
f 49/200/5 53/203/5 69/204/5 70/201/5
f 86/205/1 83/206/1 95/207/1 92/208/1
f 76/209/1 75/210/1 79/211/1 80/212/1
f 81/213/2 86/214/2 77/215/2 78/216/2
f 82/217/3 87/218/3 76/219/3 80/220/3
f 87/221/4 84/222/4 75/223/4 76/224/4
f 78/225/5 77/226/5 73/227/5 74/228/5
f 74/228/4 73/227/4 83/229/4 88/230/4
f 88/230/4 83/229/4 84/222/4 87/221/4
f 78/231/3 74/232/3 88/233/3 81/234/3
f 81/234/3 88/233/3 87/218/3 82/217/3
f 80/212/2 79/211/2 85/235/2 82/236/2
f 82/236/2 85/235/2 86/214/2 81/213/2
f 79/237/1 75/238/1 89/239/1 90/240/1
f 83/241/6 86/242/6 85/243/6 84/244/6
f 91/245/6 96/246/6 90/247/6 89/248/6
f 94/249/6 93/250/6 92/251/6 95/252/6
f 77/253/2 86/254/2 92/255/2 93/256/2
f 75/257/4 84/258/4 91/259/4 89/260/4
f 84/261/5 85/262/5 96/263/5 91/264/5
f 85/265/2 79/237/2 90/240/2 96/266/2
f 83/267/4 73/268/4 94/269/4 95/270/4
f 73/268/5 77/271/5 93/272/5 94/269/5
f 110/273/1 107/274/1 119/275/1 116/276/1
f 100/277/1 99/278/1 103/279/1 104/280/1
f 105/281/2 110/282/2 101/283/2 102/284/2
f 106/285/3 111/286/3 100/287/3 104/288/3
f 111/289/4 108/290/4 99/291/4 100/292/4
f 102/293/5 101/294/5 97/295/5 98/296/5
f 98/296/4 97/295/4 107/297/4 112/298/4
f 112/298/4 107/297/4 108/290/4 111/289/4
f 102/299/3 98/300/3 112/301/3 105/302/3
f 105/302/3 112/301/3 111/286/3 106/285/3
f 104/280/2 103/279/2 109/303/2 106/304/2
f 106/304/2 109/303/2 110/282/2 105/281/2
f 103/305/1 99/306/1 113/307/1 114/308/1
f 107/309/6 110/310/6 109/311/6 108/312/6
f 115/313/6 120/314/6 114/315/6 113/316/6
f 118/317/6 117/318/6 116/319/6 119/320/6
f 101/321/2 110/322/2 116/323/2 117/324/2
f 99/325/4 108/326/4 115/327/4 113/328/4
f 108/329/5 109/330/5 120/331/5 115/332/5
f 109/333/2 103/305/2 114/308/2 120/334/2
f 107/335/4 97/336/4 118/337/4 119/338/4
f 97/336/5 101/339/5 117/340/5 118/337/5
f 134/341/1 131/342/1 143/343/1 140/344/1
f 124/345/1 123/346/1 127/347/1 128/348/1
f 129/349/2 134/350/2 125/351/2 126/352/2
f 130/353/3 135/354/3 124/355/3 128/356/3
f 135/357/4 132/358/4 123/359/4 124/360/4
f 126/361/5 125/362/5 121/363/5 122/364/5
f 122/364/4 121/363/4 131/365/4 136/366/4
f 136/366/4 131/365/4 132/358/4 135/357/4
f 126/367/3 122/368/3 136/369/3 129/370/3
f 129/370/3 136/369/3 135/354/3 130/353/3
f 128/348/2 127/347/2 133/371/2 130/372/2
f 130/372/2 133/371/2 134/350/2 129/349/2
f 127/373/1 123/374/1 137/375/1 138/376/1
f 131/377/6 134/378/6 133/379/6 132/380/6
f 139/381/6 144/382/6 138/383/6 137/384/6
f 142/385/6 141/386/6 140/387/6 143/388/6
f 125/389/2 134/390/2 140/391/2 141/392/2
f 123/393/4 132/394/4 139/395/4 137/396/4
f 132/397/5 133/398/5 144/399/5 139/400/5
f 133/401/2 127/373/2 138/376/2 144/402/2
f 131/403/4 121/404/4 142/405/4 143/406/4
f 121/404/5 125/407/5 141/408/5 142/405/5
f 158/409/1 155/410/1 167/411/1 164/412/1
f 148/413/1 147/414/1 151/415/1 152/416/1
f 153/417/2 158/418/2 149/419/2 150/420/2
f 154/421/3 159/422/3 148/423/3 152/424/3
f 159/425/4 156/426/4 147/427/4 148/428/4
f 150/429/5 149/430/5 145/431/5 146/432/5
f 146/432/4 145/431/4 155/433/4 160/434/4
f 160/434/4 155/433/4 156/426/4 159/425/4
f 150/435/3 146/436/3 160/437/3 153/438/3
f 153/438/3 160/437/3 159/422/3 154/421/3
f 152/416/2 151/415/2 157/439/2 154/440/2
f 154/440/2 157/439/2 158/418/2 153/417/2
f 151/441/1 147/442/1 161/443/1 162/444/1
f 155/445/6 158/446/6 157/447/6 156/448/6
f 163/449/6 168/450/6 162/451/6 161/452/6
f 166/453/6 165/454/6 164/455/6 167/456/6
f 149/457/2 158/458/2 164/459/2 165/460/2
f 147/461/4 156/462/4 163/463/4 161/464/4
f 156/465/5 157/466/5 168/467/5 163/468/5
f 157/469/2 151/441/2 162/444/2 168/470/2
f 155/471/4 145/472/4 166/473/4 167/474/4
f 145/472/5 149/475/5 165/476/5 166/473/5
f 182/477/1 179/478/1 191/479/1 188/480/1
f 172/481/1 171/482/1 175/483/1 176/484/1
f 177/485/2 182/486/2 173/487/2 174/488/2
f 178/489/3 183/490/3 172/491/3 176/492/3
f 183/493/4 180/494/4 171/495/4 172/496/4
f 174/497/5 173/498/5 169/499/5 170/500/5
f 170/500/4 169/499/4 179/501/4 184/502/4
f 184/502/4 179/501/4 180/494/4 183/493/4
f 174/503/3 170/504/3 184/505/3 177/506/3
f 177/506/3 184/505/3 183/490/3 178/489/3
f 176/484/2 175/483/2 181/507/2 178/508/2
f 178/508/2 181/507/2 182/486/2 177/485/2
f 175/509/1 171/510/1 185/511/1 186/512/1
f 179/513/6 182/514/6 181/515/6 180/516/6
f 187/517/6 192/518/6 186/519/6 185/520/6
f 190/521/6 189/522/6 188/523/6 191/524/6
f 173/525/2 182/526/2 188/527/2 189/528/2
f 171/529/4 180/530/4 187/531/4 185/532/4
f 180/533/5 181/534/5 192/535/5 187/536/5
f 181/537/2 175/509/2 186/512/2 192/538/2
f 179/539/4 169/540/4 190/541/4 191/542/4
f 169/540/5 173/543/5 189/544/5 190/541/5
